<?xml version="1.0" standalone="no"?>
<!DOCTYPE svg PUBLIC "-//W3C//DTD SVG 20010904//EN"
 "http://www.w3.org/TR/2001/REC-SVG-20010904/DTD/svg10.dtd">
<svg version="1.0" xmlns="http://www.w3.org/2000/svg"
 width="200.000000pt" height="200.000000pt" viewBox="0 0 200.000000 200.000000"
 preserveAspectRatio="xMidYMid meet">
<metadata>
Created by potrace 1.14, written by Peter Selinger 2001-2017
</metadata>
<g transform="translate(0.000000,200.000000) scale(0.100000,-0.100000)"
fill="#000000" stroke="none">
<path d="M1639 1230 c-32 -33 -59 -62 -59 -66 0 -11 -25 -31 -36 -27 -6 2 -14
-10 -17 -26 -5 -21 -11 -29 -21 -25 -9 3 -17 -3 -21 -15 -3 -12 -11 -19 -16
-16 -5 4 -9 -3 -9 -14 0 -13 -5 -18 -14 -15 -9 3 -15 -5 -19 -25 -5 -21 -11
-29 -21 -25 -9 3 -17 -3 -21 -15 -3 -12 -10 -19 -15 -16 -5 3 -23 -8 -40 -25
-32 -31 -70 -46 -95 -36 -8 3 -15 0 -15 -7 0 -8 -3 -8 -8 -2 -4 6 -17 12 -28
12 -12 1 -41 7 -65 13 -24 7 -44 11 -44 9 -1 -10 -93 71 -188 166 -113 111
-151 132 -239 129 -25 -1 -35 2 -31 10 4 6 0 5 -9 -2 -11 -9 -17 -10 -20 -2
-4 13 -58 3 -58 -11 0 -5 -11 -9 -25 -9 -45 0 -162 -80 -149 -102 3 -4 -1 -5
-8 -3 -7 3 -20 -5 -28 -17 -8 -12 -25 -33 -38 -46 -12 -13 -20 -27 -18 -31 3
-4 -6 -14 -19 -21 -14 -7 -25 -19 -25 -26 0 -6 -7 -14 -15 -18 -8 -3 -15 -15
-15 -26 0 -11 -5 -20 -11 -20 -6 0 -8 -7 -5 -16 3 -8 2 -12 -4 -9 -19 12 -10
-12 13 -34 14 -12 40 -23 61 -25 35 -2 37 -1 31 24 -6 27 7 38 49 44 6 0 14
16 18 34 5 19 15 32 25 32 13 0 13 3 3 16 -11 12 -11 15 1 12 8 -2 13 3 11 10
-2 10 4 11 19 7 15 -5 19 -4 15 4 -4 6 -2 11 3 11 6 0 11 5 11 10 0 15 38 50
55 50 10 0 15 10 15 28 0 19 3 23 9 13 7 -11 9 -11 14 0 4 10 8 11 14 3 15
-19 41 -23 47 -7 4 9 9 13 13 10 3 -4 15 -2 26 4 14 8 18 8 13 0 -4 -6 -2 -11
3 -11 6 0 11 4 11 9 0 5 20 9 45 8 25 -1 45 -5 45 -10 0 -4 17 -14 38 -23 20
-8 51 -32 67 -53 17 -21 33 -37 38 -34 4 2 7 -2 7 -9 0 -7 21 -31 46 -53 26
-22 52 -46 59 -52 8 -7 17 -13 22 -13 4 0 19 -12 32 -25 13 -14 31 -25 40 -25
10 0 35 -9 56 -19 22 -10 44 -17 50 -15 24 9 75 11 75 2 0 -5 4 -6 10 -3 5 3
29 8 52 11 23 3 49 10 57 15 14 9 14 10 -1 5 -11 -3 -15 0 -12 7 2 7 17 13 32
12 16 0 26 5 24 13 -1 6 3 12 9 12 6 0 9 6 6 14 -4 10 0 12 14 9 11 -3 19 0
19 8 0 7 3 10 6 7 8 -8 51 37 69 72 10 18 23 30 36 30 11 0 17 5 14 10 -3 6 1
10 10 10 9 0 13 5 10 10 -3 6 -2 10 3 10 5 0 17 18 27 40 10 22 24 40 32 40 8
0 11 5 8 11 -4 5 3 18 14 29 12 10 21 22 20 26 -1 5 -1 16 1 24 1 11 4 9 10
-5 7 -16 9 -17 9 -3 1 9 7 23 15 31 8 8 12 24 9 40 -5 23 -10 27 -40 27 -29 0
-44 -10 -94 -60z"/>
</g>
</svg>
