<?xml version="1.0" standalone="no"?>
<!DOCTYPE svg PUBLIC "-//W3C//DTD SVG 20010904//EN"
 "http://www.w3.org/TR/2001/REC-SVG-20010904/DTD/svg10.dtd">
<svg version="1.0" xmlns="http://www.w3.org/2000/svg"
 width="600.000000pt" height="600.000000pt" viewBox="0 0 600.000000 600.000000"
 preserveAspectRatio="xMidYMid meet">
<metadata>
Created by potrace 1.14, written by Peter Selinger 2001-2017
</metadata>
<g transform="translate(0.000000,600.000000) scale(0.100000,-0.100000)"
fill="#000000" stroke="none">
<path d="M5065 3922 c-18 -4 -38 -20 -50 -39 -13 -22 -28 -32 -45 -33 -36 -1
-58 -16 -43 -31 13 -13 5 -24 -32 -45 -11 -6 -22 -22 -23 -35 -2 -13 -13 -30
-24 -37 -12 -9 -18 -22 -15 -33 6 -21 -30 -49 -63 -49 -14 0 -24 -10 -31 -30
-8 -23 -19 -31 -45 -36 -40 -7 -51 -19 -29 -31 12 -7 7 -14 -25 -33 -33 -21
-40 -31 -40 -57 0 -29 -3 -33 -25 -33 -19 0 -31 -10 -47 -36 -18 -30 -25 -35
-48 -30 -24 4 -26 2 -23 -17 3 -15 -4 -32 -20 -47 -13 -14 -26 -33 -30 -43 -4
-9 -17 -21 -31 -26 -13 -6 -29 -23 -36 -38 -7 -16 -33 -42 -56 -58 -24 -17
-44 -33 -44 -37 0 -3 -8 -4 -18 -1 -19 5 -42 -31 -42 -67 0 -17 -5 -19 -32
-13 -28 5 -31 4 -26 -14 10 -36 -8 -52 -52 -46 -37 5 -40 4 -40 -18 0 -13 -4
-29 -8 -34 -17 -24 -81 -64 -108 -67 -25 -2 -30 -8 -34 -37 -5 -33 -6 -34 -22
-18 -16 17 -68 24 -68 10 0 -13 -52 -33 -82 -33 -15 0 -28 -4 -28 -9 0 -12
-41 -2 -62 16 -14 13 -19 12 -39 -8 -21 -21 -26 -22 -75 -11 -29 6 -67 7 -86
3 -19 -4 -45 -4 -58 1 -13 5 -29 7 -37 4 -7 -3 -15 -1 -18 4 -3 5 -32 7 -64 4
-39 -5 -61 -3 -65 5 -4 6 -22 11 -41 11 -19 0 -36 4 -39 8 -3 4 -31 21 -63 37
-32 16 -67 38 -78 47 -10 10 -35 23 -55 28 -19 5 -44 21 -54 35 -10 14 -25 25
-34 25 -16 0 -137 83 -163 112 -9 10 -21 18 -26 18 -6 0 -23 16 -37 35 -15 19
-36 35 -47 35 -10 0 -19 4 -19 9 0 5 -8 12 -17 15 -10 3 -37 24 -61 46 -23 22
-48 40 -56 40 -7 0 -19 7 -26 15 -7 8 -21 15 -32 15 -11 0 -32 8 -46 18 -38
27 -68 32 -91 16 -12 -9 -22 -11 -26 -4 -3 5 -18 10 -32 10 -14 0 -39 12 -56
26 -23 19 -38 24 -59 20 -19 -4 -38 0 -54 11 -24 15 -29 15 -78 0 -57 -18
-104 -15 -143 11 -20 12 -26 12 -45 0 -17 -11 -36 -13 -68 -8 -39 5 -49 3 -72
-18 l-27 -24 -43 21 c-25 11 -48 21 -51 21 -4 0 -23 -15 -41 -33 -26 -26 -40
-33 -62 -30 -23 4 -36 -3 -63 -31 -24 -25 -44 -36 -63 -36 -16 0 -40 -7 -53
-16 -13 -9 -28 -13 -33 -10 -19 11 -51 -39 -54 -84 l-3 -45 -45 0 c-37 0 -47
-4 -55 -22 -5 -13 -15 -23 -22 -23 -17 0 -43 -40 -43 -65 0 -14 -12 -28 -37
-41 -20 -10 -44 -23 -54 -29 -10 -5 -20 -26 -24 -50 -7 -50 -27 -77 -49 -69
-12 4 -16 0 -16 -15 0 -11 -11 -28 -25 -37 -14 -9 -25 -22 -25 -29 0 -7 -7
-18 -15 -25 -8 -7 -15 -22 -15 -35 0 -26 -28 -85 -40 -85 -4 0 -6 -9 -3 -20 6
-21 -20 -29 -32 -10 -3 6 -13 10 -22 10 -12 0 -14 -7 -10 -28 5 -22 -2 -36
-33 -72 -38 -44 -38 -45 -22 -72 13 -22 14 -33 5 -46 -8 -14 -7 -23 3 -37 12
-16 18 -17 52 -7 58 18 82 15 82 -7 0 -11 5 -23 10 -26 6 -4 3 -16 -10 -32
-11 -14 -20 -32 -20 -39 0 -15 41 -19 54 -7 4 4 23 8 43 9 26 1 41 8 52 24 9
12 28 34 42 49 17 17 28 41 32 70 7 56 1 71 -32 73 -14 0 -6 4 19 7 37 5 46
10 48 29 3 19 9 23 35 20 27 -2 33 1 35 20 2 12 8 22 13 22 5 0 9 8 9 18 0 10
16 33 36 51 49 47 69 80 57 92 -6 6 -8 21 -6 33 6 28 45 50 61 34 29 -29 83
56 63 99 -6 13 -15 23 -20 23 -6 0 -8 7 -5 15 9 22 41 18 47 -5 4 -16 12 -19
49 -17 48 2 58 10 58 47 0 19 9 30 35 44 19 11 35 24 35 30 0 6 4 6 12 -2 8
-8 17 -7 37 7 14 10 34 21 44 24 9 4 17 15 17 26 0 10 9 21 20 24 11 3 20 12
20 21 0 13 4 15 19 6 31 -16 69 -12 76 8 7 24 77 46 102 33 47 -24 74 -29 153
-30 47 0 95 -6 108 -13 17 -9 25 -9 34 0 7 7 22 12 34 12 13 0 26 5 29 10 3 6
19 10 35 10 16 0 32 -4 35 -10 3 -5 17 -10 30 -10 13 0 27 -5 30 -11 4 -5 14
-9 23 -7 10 2 22 -3 28 -10 8 -12 15 -12 33 -3 19 11 25 9 39 -6 26 -29 66
-51 98 -55 22 -2 33 -12 47 -40 14 -28 27 -40 54 -47 20 -6 40 -8 45 -5 5 3
12 -3 14 -13 3 -11 18 -24 34 -30 17 -6 35 -25 45 -47 17 -35 58 -66 87 -66 7
0 19 -9 26 -20 9 -16 23 -20 63 -20 34 0 49 -4 48 -12 -5 -39 7 -52 64 -74 9
-3 17 -12 17 -20 0 -18 12 -24 60 -29 22 -2 53 -13 69 -24 16 -12 38 -21 49
-21 12 0 24 -4 27 -10 3 -5 28 -10 55 -10 27 0 52 -4 55 -10 3 -5 14 -10 24
-10 10 0 24 -7 31 -15 10 -12 24 -14 59 -9 25 3 66 0 91 -6 25 -6 55 -14 68
-17 14 -3 30 1 41 11 16 15 19 15 31 1 14 -17 56 -20 65 -5 3 6 35 10 70 10
59 0 65 2 80 28 16 26 20 27 83 25 37 -2 74 0 82 4 8 4 26 7 40 7 23 1 25 5
23 39 -2 35 9 49 22 27 9 -15 45 -12 51 4 3 8 13 12 25 9 30 -8 64 15 79 53 8
21 21 34 31 34 10 0 20 8 23 18 3 9 14 22 24 27 10 6 35 19 55 29 20 11 37 25
37 32 0 7 15 23 33 35 17 13 34 27 35 31 2 4 11 8 20 8 19 0 46 36 37 50 -3 5
4 14 15 20 17 9 19 14 9 26 -9 11 -9 14 1 14 14 0 60 46 60 60 0 5 8 16 18 26
9 10 17 25 17 33 1 9 7 15 14 13 6 -1 21 4 33 12 16 11 25 12 38 3 22 -13 50
5 50 34 0 11 4 19 10 19 5 0 16 15 25 34 11 23 22 33 31 29 8 -3 14 0 14 6 0
6 9 20 21 32 15 15 20 30 17 50 -4 29 6 41 15 17 5 -17 36 8 48 39 6 15 17 23
33 23 32 0 42 16 19 29 -17 10 -17 10 0 11 11 0 17 8 17 23 1 29 18 50 55 68
21 10 30 22 31 39 3 68 2 66 39 62 42 -5 60 22 30 44 -18 13 -17 14 8 14 23 0
31 7 48 46 l19 47 -21 64 c-12 36 -30 68 -41 74 -25 13 -106 19 -143 11z
m-3712 -949 c-7 -2 -21 -2 -30 0 -10 3 -4 5 12 5 17 0 24 -2 18 -5z"/>
</g>
</svg>
